<svg xmlns="http://www.w3.org/2000/svg" width="64" height="64" viewBox="0 0 64 64">
  <!-- Background circle -->
  <circle cx="32" cy="32" r="30.72" fill="#FFB6C1"/>

  <!-- Ears (behind head) -->
  <ellipse cx="14.719999999999999" cy="20.48" rx="7.68" ry="6.4" fill="#FF8FAB"/>
  <ellipse cx="49.28" cy="20.48" rx="7.68" ry="6.4" fill="#FF8FAB"/>
  <!-- Inner ear -->
  <ellipse cx="14.719999999999999" cy="20.48" rx="4.48" ry="3.84" fill="#FF69B4"/>
  <ellipse cx="49.28" cy="20.48" rx="4.48" ry="3.84" fill="#FF69B4"/>

  <!-- Head -->
  <circle cx="32" cy="33.28" r="21.76" fill="#FFE4E1"/>

  <!-- Eyes -->
  <circle cx="25.6" cy="28.16" r="2.24" fill="#3D2B1F"/>
  <circle cx="38.4" cy="28.16" r="2.24" fill="#3D2B1F"/>
  <!-- Eye shine -->
  <circle cx="26.56" cy="27.2" r="0.768" fill="white"/>
  <circle cx="39.36" cy="27.2" r="0.768" fill="white"/>

  <!-- Blush cheeks -->
  <ellipse cx="21.759999999999998" cy="34.56" rx="4.48" ry="2.88" fill="#FF8FAB" opacity="0.5"/>
  <ellipse cx="42.24" cy="34.56" rx="4.48" ry="2.88" fill="#FF8FAB" opacity="0.5"/>

  <!-- Snout -->
  <ellipse cx="32" cy="38.4" rx="8.32" ry="5.76" fill="#FFB6C1"/>
  <!-- Nostrils -->
  <ellipse cx="28.8" cy="38.4" rx="1.92" ry="1.6" fill="#FF8FAB"/>
  <ellipse cx="35.2" cy="38.4" rx="1.92" ry="1.6" fill="#FF8FAB"/>

  <!-- Smile -->
  <path d="M 27.52 43.519999999999996 Q 32 46.72 36.480000000000004 43.519999999999996"
    stroke="#D4607A" stroke-width="1.152" fill="none" stroke-linecap="round"/>
</svg>